<svg xmlns="http://www.w3.org/2000/svg" version="1.1" viewBox="2 0 12 16" preserveAspectRatio="xMidYMid meet"><rect width="1" height="1" x="7" y="0" shape-rendering="geometricPrecision" fill="rgb(134, 207, 0)"></rect><rect width="1" height="1" x="8" y="0" shape-rendering="geometricPrecision" fill="rgb(134, 207, 0)"></rect><rect width="1" height="1" x="6" y="1" shape-rendering="geometricPrecision" fill="rgb(134, 207, 0)"></rect><rect width="1" height="1" x="9" y="1" shape-rendering="geometricPrecision" fill="rgb(134, 207, 0)"></rect><rect width="1" height="1" x="5" y="2" shape-rendering="geometricPrecision" fill="rgb(134, 207, 0)"></rect><rect width="1" height="1" x="10" y="2" shape-rendering="geometricPrecision" fill="rgb(134, 207, 0)"></rect><rect width="1" height="1" x="4" y="3" shape-rendering="geometricPrecision" fill="rgb(134, 207, 0)"></rect><rect width="1" height="1" x="11" y="3" shape-rendering="geometricPrecision" fill="rgb(134, 207, 0)"></rect><rect width="1" height="1" x="3" y="4" shape-rendering="geometricPrecision" fill="rgb(134, 207, 0)"></rect><rect width="1" height="1" x="12" y="4" shape-rendering="geometricPrecision" fill="rgb(134, 207, 0)"></rect><rect width="1" height="1" x="2" y="5" shape-rendering="geometricPrecision" fill="rgb(134, 207, 0)"></rect><rect width="1" height="1" x="6" y="5" shape-rendering="geometricPrecision" fill="rgb(134, 207, 0)"></rect><rect width="1" height="1" x="9" y="5" shape-rendering="geometricPrecision" fill="rgb(134, 207, 0)"></rect><rect width="1" height="1" x="10" y="5" shape-rendering="geometricPrecision" fill="rgb(134, 207, 0)"></rect><rect width="1" height="1" x="13" y="5" shape-rendering="geometricPrecision" fill="rgb(134, 207, 0)"></rect><rect width="1" height="1" x="2" y="6" shape-rendering="geometricPrecision" fill="rgb(134, 207, 0)"></rect><rect width="1" height="1" x="6" y="6" shape-rendering="geometricPrecision" fill="rgb(134, 207, 0)"></rect><rect width="1" height="1" x="8" y="6" shape-rendering="geometricPrecision" fill="rgb(134, 207, 0)"></rect><rect width="1" height="1" x="11" y="6" shape-rendering="geometricPrecision" fill="rgb(134, 207, 0)"></rect><rect width="1" height="1" x="13" y="6" shape-rendering="geometricPrecision" fill="rgb(134, 207, 0)"></rect><rect width="1" height="1" x="2" y="7" shape-rendering="geometricPrecision" fill="rgb(134, 207, 0)"></rect><rect width="1" height="1" x="6" y="7" shape-rendering="geometricPrecision" fill="rgb(134, 207, 0)"></rect><rect width="1" height="1" x="8" y="7" shape-rendering="geometricPrecision" fill="rgb(134, 207, 0)"></rect><rect width="1" height="1" x="13" y="7" shape-rendering="geometricPrecision" fill="rgb(134, 207, 0)"></rect><rect width="1" height="1" x="2" y="8" shape-rendering="geometricPrecision" fill="rgb(134, 207, 0)"></rect><rect width="1" height="1" x="6" y="8" shape-rendering="geometricPrecision" fill="rgb(134, 207, 0)"></rect><rect width="1" height="1" x="9" y="8" shape-rendering="geometricPrecision" fill="rgb(134, 207, 0)"></rect><rect width="1" height="1" x="10" y="8" shape-rendering="geometricPrecision" fill="rgb(134, 207, 0)"></rect><rect width="1" height="1" x="13" y="8" shape-rendering="geometricPrecision" fill="rgb(134, 207, 0)"></rect><rect width="1" height="1" x="2" y="9" shape-rendering="geometricPrecision" fill="rgb(134, 207, 0)"></rect><rect width="1" height="1" x="6" y="9" shape-rendering="geometricPrecision" fill="rgb(134, 207, 0)"></rect><rect width="1" height="1" x="11" y="9" shape-rendering="geometricPrecision" fill="rgb(134, 207, 0)"></rect><rect width="1" height="1" x="13" y="9" shape-rendering="geometricPrecision" fill="rgb(134, 207, 0)"></rect><rect width="1" height="1" x="2" y="10" shape-rendering="geometricPrecision" fill="rgb(134, 207, 0)"></rect><rect width="1" height="1" x="6" y="10" shape-rendering="geometricPrecision" fill="rgb(134, 207, 0)"></rect><rect width="1" height="1" x="8" y="10" shape-rendering="geometricPrecision" fill="rgb(134, 207, 0)"></rect><rect width="1" height="1" x="11" y="10" shape-rendering="geometricPrecision" fill="rgb(134, 207, 0)"></rect><rect width="1" height="1" x="13" y="10" shape-rendering="geometricPrecision" fill="rgb(134, 207, 0)"></rect><rect width="1" height="1" x="3" y="11" shape-rendering="geometricPrecision" fill="rgb(134, 207, 0)"></rect><rect width="1" height="1" x="4" y="11" shape-rendering="geometricPrecision" fill="rgb(134, 207, 0)"></rect><rect width="1" height="1" x="5" y="11" shape-rendering="geometricPrecision" fill="rgb(134, 207, 0)"></rect><rect width="1" height="1" x="9" y="11" shape-rendering="geometricPrecision" fill="rgb(134, 207, 0)"></rect><rect width="1" height="1" x="10" y="11" shape-rendering="geometricPrecision" fill="rgb(134, 207, 0)"></rect><rect width="1" height="1" x="12" y="11" shape-rendering="geometricPrecision" fill="rgb(134, 207, 0)"></rect><rect width="1" height="1" x="11" y="12" shape-rendering="geometricPrecision" fill="rgb(134, 207, 0)"></rect><rect width="1" height="1" x="5" y="13" shape-rendering="geometricPrecision" fill="rgb(134, 207, 0)"></rect><rect width="1" height="1" x="10" y="13" shape-rendering="geometricPrecision" fill="rgb(134, 207, 0)"></rect><rect width="1" height="1" x="6" y="14" shape-rendering="geometricPrecision" fill="rgb(134, 207, 0)"></rect><rect width="1" height="1" x="9" y="14" shape-rendering="geometricPrecision" fill="rgb(134, 207, 0)"></rect><rect width="1" height="1" x="7" y="15" shape-rendering="geometricPrecision" fill="rgb(134, 207, 0)"></rect><rect width="1" height="1" x="8" y="15" shape-rendering="geometricPrecision" fill="rgb(134, 207, 0)"></rect></svg>